<svg xmlns="http://www.w3.org/2000/svg" width="69" height="89" fill="#a01424"><path d="M47.857 88.433c-.4 0-.9-.1-1.3-.2-2.8-.7-4.7-3.3-4.5-6.2l1-12.7-11-3.2-6.1 9.1c-.6.9-1.4 1.7-2.4 2.3l-14 8.9c-1.4.9-3.2 1.2-4.8.8-1.7-.4-3.1-1.4-3.9-2.9-1.6-2.7-.9-6.2 1.6-8.1l12.1-9.1 11.4-34.7-9.4.1-4.6 10.1c-1.2 2.7-4.3 4-7.1 3.1-1.5-.5-2.7-1.6-3.4-3-.7-1.4-.7-3.1-.2-4.5l5.2-13.6c1.1-2.7 3.5-4.6 6.4-4.9l17.2-1.6c1.4-.1 2.8 0 4.1.5l9.5 3.3c1.9.7 3.5 1.9 4.7 3.5l8.1 11.3h6.9c2.8 0 5.2 2.2 5.5 5 .2 1.5-.3 3-1.3 4.1-1 1.2-2.3 1.9-3.8 2l-10.1.8c-2 .1-3.9-.6-5.1-2.1l-6-6.9-4.8 13 15.3 5.9c2.7 1 4.3 3.8 3.8 6.6l-3.1 18.5c-.3 1.6-1.2 3-2.5 3.9-1.1.6-2.2.9-3.4.9zm-16.4-25.5c.1 0 .3 0 .4.1l13.3 3.9c.7.2 1.1.9 1.1 1.6l-1.1 14c-.1 1.4.8 2.7 2.2 3 .8.2 1.6 0 2.2-.4.7-.4 1.1-1.1 1.2-1.9l3.1-18.5c.2-1.4-.6-2.8-1.9-3.3l-16.7-6.4c-.8-.3-1.2-1.2-.9-1.9l6.2-16.8c.2-.5.6-.9 1.2-1 .5-.1 1.1.1 1.4.5l7.7 8.8c.7.8 1.6 1.2 2.6 1.1l10.1-.8c.7-.1 1.3-.4 1.7-.9.4-.5.6-1.2.6-1.9-.1-1.3-1.2-2.3-2.5-2.3h-7.7c-.5 0-.9-.2-1.2-.6l-8.6-11.9c-.8-1.1-1.9-1.9-3.2-2.4l-9.5-3.3c-.9-.3-1.9-.4-2.8-.3l-17.2 1.6c-1.8.2-3.3 1.3-3.9 3l-5.2 13.6c-.3.7-.2 1.5.1 2.2.3.7.9 1.2 1.6 1.4 1.3.4 2.8-.2 3.4-1.5l5.1-10.9c.2-.5.8-.9 1.4-.9l12.5-.2c.5 0 1 .2 1.2.6.3.4.4.9.2 1.4l-12.2 37.1c-.1.3-.3.6-.5.7l-12.5 9.4c-1.3 1-1.7 2.8-.8 4.2.4.8 1.2 1.3 2 1.5.9.2 1.7.1 2.5-.4l14-8.9c.6-.4 1.1-.9 1.5-1.5l6.7-10c.2-.6.7-.8 1.2-.8zm11.8-44.5c-.6 0-1.1-.1-1.7-.2-5-.9-8.3-5.7-7.4-10.7.4-2.4 1.8-4.5 3.8-5.9 2-1.4 4.5-1.9 6.9-1.5 2.4.4 4.5 1.8 5.9 3.8 1.4 2 1.9 4.5 1.5 6.9-.4 2.4-1.8 4.5-3.8 5.9-1.6 1.2-3.3 1.7-5.2 1.7zm0-15.3c-1.2 0-2.4.4-3.5 1.1-1.4.9-2.3 2.3-2.6 3.9-.6 3.3 1.6 6.5 4.9 7.1 1.6.3 3.2-.1 4.6-1 1.4-.9 2.3-2.3 2.6-3.9.3-1.6-.1-3.2-1-4.6-.9-1.4-2.3-2.3-3.9-2.6-.4.1-.7 0-1.1 0z"/></svg>