<svg xmlns="http://www.w3.org/2000/svg" width="109" height="82" fill="#a01424"><path d="M13.737 39.08c-.5 0-1.1-.3-1.3-.8-5.4-10.2-3.5-22.5 4.6-30.6 5.4-5.4 12.8-8.1 20.3-7.6 6.9.5 13.3 3.7 17.8 8.9 4.5-5.2 10.9-8.4 17.8-8.9 7.6-.5 15 2.2 20.3 7.6 7.4 7.4 9.7 18.5 5.7 28.2-.3.8-1.2 1.2-2 .8-.8-.3-1.2-1.2-.8-2 3.5-8.6 1.5-18.4-5.1-24.9-4.7-4.7-11.3-7.2-17.9-6.7-6.7.5-12.8 3.8-16.8 9.2-.6.8-1.9.8-2.4 0-4-5.4-10.1-8.7-16.8-9.2-6.7-.5-13.2 1.9-17.9 6.7-7.2 7.2-8.8 18.1-4.1 27.1.4.7.1 1.7-.6 2.1-.3.1-.5.1-.8.1zm41.399 42.9c-.4 0-.8-.1-1.1-.4l-28.9-28.9 2.1-2.1 27.8 27.8 13.8-13.8c.6-.6 1.6-.6 2.1 0 .6.6.6 1.6 0 2.1l-14.8 14.8c-.2.4-.6.5-1 .5z"/><path d="M45.836 57.28c-.7 0-1.3-.5-1.5-1.1l-7-26.5-5.6 15.6c-.2.6-.8 1-1.4 1h-28.4c-.8 0-1.5-.7-1.5-1.5s.7-1.5 1.5-1.5h27.3l6.9-19.2c.2-.6.8-1 1.5-1s1.2.5 1.4 1.1l7.1 26.7 6-15.4c.2-.6.8-1 1.4-1h16.1c.8 0 1.5.7 1.5 1.5s-.7 1.5-1.5 1.5h-15l-7.3 18.8c-.3.6-.9 1-1.5 1zm46.1 24.7c-.2 0-.5-.1-.7-.2l-7.2-3.5c-5.7-2.8-9.3-8.6-9.3-15v-16.2c0-.7.5-1.4 1.2-1.5 7.2-1.4 11.9-3.5 14.8-6.5.3-.3.7-.5 1.1-.5.4 0 .8.2 1.1.5 3 3.1 7.701 5.2 14.801 6.5.7.1 1.2.8 1.2 1.5v16.2c0 6.4-3.601 12.1-9.3 15l-7.2 3.5c0 .2-.2.2-.5.2zm-14.1-33.6v14.9c0 5.2 2.9 9.9 7.6 12.2l6.5 3.2 6.5-3.2c4.701-2.3 7.6-7 7.6-12.2v-14.9c-6.4-1.3-10.9-3.3-14.1-6.1-3.2 2.8-7.7 4.8-14.1 6.1z"/><path d="M91.036 67.18c-.4 0-.8-.1-1.1-.4l-4.9-4.9c-.6-.6-.6-1.6 0-2.1.6-.6 1.6-.6 2.1 0l3.8 3.8 7.9-7.9c.6-.6 1.601-.6 2.101 0 .6.6.6 1.6 0 2.1l-9 9c-.1.3-.5.4-.9.4z"/></svg>