<svg xmlns="http://www.w3.org/2000/svg" width="87" height="82" fill="#a01424"><path d="M23.125 57.562c-.2 0-.5-.1-.7-.2-.8-.4-1.1-1.3-.7-2 .1-.2 12.3-24.3 43-12.4 2-3.2 8.5-11.3 20.5-9.7.8.1 1.4.9 1.3 1.7-.1.8-.9 1.4-1.7 1.3-12.6-1.7-17.9 8.8-18.1 9.2-.4.7-1.2 1-1.9.7-28.9-11.9-39.9 9.5-40.3 10.4-.3.7-.9 1-1.4 1z"/><path d="M26.425 52.862c-.7 0-1.3-.5-1.5-1.1-3.4-13.3-.9-39-.8-40 .1-.8.8-1.4 1.7-1.4.8.1 1.4.8 1.4 1.7 0 .3-2.5 26.2.7 39 .2.8-.3 1.6-1.1 1.8-.1-.1-.3 0-.4 0z"/><path d="M47.525 81.962c-12.4 0-26.8-1.9-41.3-7.8-4.1-1.7-6.5-5.7-6.2-10.1 1.1-12.7 4.3-37.1 13.8-58.2 1.1-2.4 3.4-4.1 6.1-4.3l15.5-1.5c3.5-.3 6.6 2.2 6.9 5.7l.9 9c.1 1.5-.5 2.9-1.6 3.8-1.1.9-2.7 1.2-4.1.8l-12.3-4c-.8-.3-1.2-1.1-1-1.9.3-.8 1.1-1.2 1.9-1l12.3 4c.6.2 1.1-.1 1.2-.2.2-.1.5-.5.5-1.1l-.9-9c-.2-1.8-1.8-3.1-3.6-3l-15.5 1.5c-1.6.2-2.9 1.1-3.6 2.6-9.8 21.5-12.8 47.2-13.6 57.2-.3 3.1 1.5 5.9 4.3 7 39.1 15.9 76.7 1.9 77.1 1.8.8-.3 1.7.1 2 .9.3.8-.1 1.7-.9 2-.1-.1-15.9 5.8-37.9 5.8z"/><path d="M54.325 71.862c-5.5 0-10.1-2-10.4-2.1-.8-.3-1.1-1.2-.8-2 .3-.8 1.2-1.1 2-.8.1.1 11.6 4.9 18.8-1.5.6-.6 1.6-.5 2.1.1.6.6.5 1.6-.1 2.1-3.6 3.3-7.8 4.2-11.6 4.2z"/></svg>